<?xml version="1.0" encoding="utf-8"?>
<!-- Generator: Adobe Illustrator 25.0.0, SVG Export Plug-In . SVG Version: 6.00 Build 0)  -->
<svg version="1.1" id="Layer_1" xmlns="http://www.w3.org/2000/svg" xmlns:xlink="http://www.w3.org/1999/xlink" x="0px" y="0px"
	 viewBox="0 0 1000 1000" style="enable-background:new 0 0 1000 1000;" xml:space="preserve">
<style type="text/css">
	.st0{fill:#FFFFFF;}
	.st1{fill:#01DF00;}
</style>
<g>
	<path class="st0" d="M588.53,796.04c-1.54,10.33-3.07,21.82-5.09,33.22c-0.46,2.62-1.99,5.96-4.08,7.23
		c-29.54,17.94-58.04,37.75-95.52,35.79c-45.16-2.36-78.96-33.47-79.16-81.89c-0.16-38.94,5.12-78.14,10.73-116.82
		c7.13-49.11,17.63-97.73,25.39-146.76c2.45-15.48,1.69-31.67,0.72-47.43c-1.38-22.39-12.96-31.82-35.53-30.37
		c-6.18,0.4-12.4,1.86-18.35,3.65c-5.91,1.79-11.5,4.62-17.27,7.01c-4.16-23.77,2.96-40.8,23.12-50.71
		c17.15-8.43,34.65-16.83,52.88-22.25c54.14-16.08,99.09,13.66,105.46,69.72c4.47,39.31-1.12,78.22-8.51,116.88
		c-10.27,53.68-20.84,107.32-29.8,161.22c-2.55,15.33-1.27,31.69,0.66,47.28c2.13,17.18,13.37,26,30.65,24.1
		C559.41,804.31,573.65,799.53,588.53,796.04z"/>
	<path class="st0" d="M524.31,304.47c-40.15-0.22-72.77-32.12-72.52-70.91c0.25-39.32,34-71.72,74.04-71.09
		c40.25,0.63,70.16,31.06,70.04,71.26C595.75,275.05,565.75,304.7,524.31,304.47z"/>
</g>
<g>
	<g>
		<path class="st1" d="M605.98,778.59c-1.54,10.33-3.07,21.82-5.09,33.22c-0.46,2.62-1.98,5.96-4.08,7.23
			c-29.54,17.94-58.04,37.75-95.52,35.79c-45.16-2.36-78.96-33.47-79.16-81.89c-0.16-38.94,5.12-78.14,10.73-116.82
			c7.13-49.11,17.63-97.73,25.39-146.76c2.45-15.48,1.69-31.67,0.72-47.43c-1.38-22.39-12.96-31.82-35.53-30.37
			c-6.18,0.4-12.4,1.86-18.35,3.65c-5.91,1.79-11.5,4.62-17.27,7.01c-4.16-23.77,2.96-40.8,23.12-50.71
			c17.15-8.43,34.65-16.83,52.88-22.25c54.14-16.08,99.09,13.66,105.46,69.72c4.47,39.31-1.12,78.22-8.51,116.88
			c-10.27,53.68-20.84,107.32-29.8,161.22c-2.55,15.33-1.27,31.69,0.66,47.28c2.13,17.18,13.37,26,30.65,24.1
			C576.86,786.87,591.1,782.08,605.98,778.59z"/>
		<path class="st1" d="M541.76,287.03c-40.15-0.22-72.77-32.12-72.52-70.91c0.25-39.32,34-71.72,74.04-71.09
			c40.25,0.63,70.16,31.06,70.04,71.26C613.2,257.6,583.2,287.25,541.76,287.03z"/>
	</g>
</g>
</svg>
